<svg width="49" height="45" viewBox="0 0 49 45" fill="none" xmlns="http://www.w3.org/2000/svg">
  <g clip-path="url(#clip0_152_25)">
    <path d="M19.9895 21.0552C18.6395 21.0552 17.5737 22.2394 17.5737 23.6842C17.5737 25.1289 18.6632 26.3131 19.9895 26.3131C21.3395 26.3131 22.4053 25.1289 22.4053 23.6842C22.429 22.2394 21.3395 21.0552 19.9895 21.0552ZM28.6343 21.0552C27.2843 21.0552 26.2185 22.2394 26.2185 23.6842C26.2185 25.1289 27.3079 26.3131 28.6343 26.3131C29.9843 26.3131 31.05 25.1289 31.05 23.6842C31.05 22.2394 29.9843 21.0552 28.6343 21.0552Z" fill="white"/>
    <path d="M40.1448 1.1842H8.408C5.73168 1.1842 3.55273 3.36315 3.55273 6.06315V38.0842C3.55273 40.7842 5.73168 42.9632 8.408 42.9632H35.2659L34.0106 38.5816L37.0422 41.4L39.908 44.0526L45.0001 48.5526V6.06315C45.0001 3.36315 42.8212 1.1842 40.1448 1.1842ZM31.0027 32.1158C31.0027 32.1158 30.1501 31.0974 29.4396 30.1974C32.5422 29.321 33.7264 27.3789 33.7264 27.3789C32.7554 28.0184 31.8317 28.4684 31.0027 28.7763C29.8185 29.2737 28.6817 29.6053 27.5685 29.7947C25.2948 30.221 23.2106 30.1026 21.4343 29.771C20.0843 29.5105 18.9238 29.1316 17.9527 28.7526C17.408 28.5395 16.8159 28.2789 16.2238 27.9474C16.1527 27.9 16.0817 27.8763 16.0106 27.8289C15.9633 27.8053 15.9396 27.7816 15.9159 27.7579C15.4896 27.521 15.2527 27.3553 15.2527 27.3553C15.2527 27.3553 16.3896 29.25 19.3975 30.15C18.6869 31.05 17.8106 32.1158 17.8106 32.1158C12.5764 31.95 10.5869 28.5158 10.5869 28.5158C10.5869 20.8895 13.9975 14.7079 13.9975 14.7079C17.408 12.15 20.6527 12.221 20.6527 12.221L20.8896 12.5053C16.6264 13.7368 14.6606 15.6079 14.6606 15.6079C14.6606 15.6079 15.1817 15.3237 16.058 14.921C18.5922 13.8079 20.6054 13.5 21.4343 13.4289C21.5764 13.4053 21.6948 13.3816 21.8369 13.3816C23.2817 13.1921 24.9159 13.1447 26.6212 13.3342C28.8712 13.5947 31.2869 14.2579 33.7501 15.6079C33.7501 15.6079 31.8791 13.8316 27.8527 12.6L28.1843 12.221C28.1843 12.221 31.4291 12.15 34.8396 14.7079C34.8396 14.7079 38.2501 20.8895 38.2501 28.5158C38.2501 28.5158 36.2369 31.95 31.0027 32.1158Z" fill="white"/>
  </g>

  <defs>
    <clipPath id="clip0_152_25">
      <rect width="48.5526" height="45" fill="white"/>
    </clipPath>
  </defs>
</svg>
