<svg width="45" height="45" viewBox="0 0 45 45" fill="none" xmlns="http://www.w3.org/2000/svg">
  <path d="M16.875 35.625C7.5 38.4375 7.5 30.9375 3.75 30M30 41.25V33.9938C30.0703 33.0997 29.9495 32.2009 29.6457 31.3571C29.3418 30.5133 28.8617 29.7439 28.2375 29.1C34.125 28.4438 40.3125 26.2125 40.3125 15.975C40.312 13.3572 39.305 10.8398 37.5 8.94375C38.3547 6.65345 38.2943 4.12191 37.3312 1.87501C37.3312 1.87501 35.1188 1.21876 30 4.65001C25.7025 3.4853 21.1725 3.4853 16.875 4.65001C11.7562 1.21876 9.54375 1.87501 9.54375 1.87501C8.58071 4.12191 8.52027 6.65345 9.375 8.94375C7.55649 10.8538 6.54848 13.394 6.5625 16.0313C6.5625 26.1938 12.75 28.425 18.6375 29.1563C18.0206 29.7937 17.5449 30.5539 17.2412 31.3874C16.9375 32.2208 16.8128 33.1089 16.875 33.9938V41.25" stroke="white" stroke-width="2" stroke-linecap="round" stroke-linejoin="round"/>
</svg>
