<svg width="45" height="45" viewBox="0 0 45 45" fill="none" xmlns="http://www.w3.org/2000/svg">
  <path d="M30 15C32.9837 15 35.8452 16.1853 37.955 18.295C40.0647 20.4048 41.25 23.2663 41.25 26.25V39.375H33.75V26.25C33.75 25.2554 33.3549 24.3016 32.6516 23.5984C31.9484 22.8951 30.9946 22.5 30 22.5C29.0054 22.5 28.0516 22.8951 27.3484 23.5984C26.6451 24.3016 26.25 25.2554 26.25 26.25V39.375H18.75V26.25C18.75 23.2663 19.9353 20.4048 22.045 18.295C24.1548 16.1853 27.0163 15 30 15V15Z" stroke="white" stroke-width="2" stroke-linecap="round" stroke-linejoin="round"/>
  <path d="M11.25 16.875H3.75V39.375H11.25V16.875Z" stroke="white" stroke-width="2" stroke-linecap="round" stroke-linejoin="round"/>
  <path d="M7.5 11.25C9.57107 11.25 11.25 9.57107 11.25 7.5C11.25 5.42893 9.57107 3.75 7.5 3.75C5.42893 3.75 3.75 5.42893 3.75 7.5C3.75 9.57107 5.42893 11.25 7.5 11.25Z" stroke="white" stroke-width="2" stroke-linecap="round" stroke-linejoin="round"/>
</svg>
