<svg width="45" height="45" viewBox="0 0 45 45" fill="none" xmlns="http://www.w3.org/2000/svg">
  <path d="M39.7462 4.56187C39.0847 4.54353 38.4281 4.68165 37.83 4.965L21.6881 11.2087C17.8106 12.7087 13.9387 14.205 10.9556 15.3525C9.17755 16.0404 7.39692 16.7217 5.61373 17.3962C4.82623 17.6719 3.75748 18.0187 2.85186 19.0856C1.48686 20.9006 3.21373 22.4569 4.57498 23.3719C7.59373 24.3394 10.7156 25.2637 13.3012 26.1319C14.2556 29.4937 15.1706 32.8669 16.0762 36.2344C16.3762 36.9094 17.025 37.1606 17.6962 37.1681L17.6925 37.2019C17.6925 37.2019 18.2194 37.2544 18.7331 37.1306C19.3899 36.9634 19.9925 36.6296 20.4825 36.1612C21.1294 35.5537 22.8825 33.8287 23.8781 32.8537L31.3762 38.3888L31.4362 38.4225C31.4362 38.4225 32.265 39.0056 33.48 39.0881C34.0875 39.1294 34.8862 39.0131 35.5725 38.5106C36.2662 38.0044 36.7219 37.1944 36.9375 36.2681C37.5787 33.4706 41.8312 13.2337 42.5569 9.88312L42.5381 9.96187C43.0444 8.07562 42.8569 6.34687 41.685 5.32312C41.1461 4.85278 40.4612 4.58318 39.7462 4.56V4.56187Z" stroke="white" stroke-width="2" stroke-linecap="round" stroke-linejoin="round"/>
</svg>
